<svg xmlns="http://www.w3.org/2000/svg" xmlns:xlink="http://www.w3.org/1999/xlink" version="1.1" x="0px" y="0px" viewBox="0 0 24 30" enable-background="new 0 0 24 24" xml:space="preserve"><g><g><path d="M18.187,18.278c-0.273,0-0.497-0.221-0.5-0.495c-0.033-3.175-2.516-5.676-5.65-5.693c-3.144-0.042-5.709,2.52-5.727,5.655    c-0.002,0.276-0.245,0.501-0.503,0.497C5.53,18.24,5.308,18.016,5.31,17.739c0.021-3.675,3.021-6.649,6.693-6.649    c0.013,0,0.026,0,0.039,0c3.687,0.021,6.605,2.957,6.645,6.684c0.003,0.275-0.219,0.502-0.495,0.505    C18.19,18.278,18.188,18.278,18.187,18.278z"/><path d="M5.361,14.552c-0.088,0-0.176-0.022-0.256-0.07l-3.49-2.077c-0.237-0.142-0.315-0.448-0.174-0.686    c0.142-0.239,0.449-0.315,0.686-0.174l3.49,2.077c0.237,0.142,0.315,0.448,0.174,0.686C5.697,14.465,5.531,14.552,5.361,14.552z"/><path d="M8.231,11.724c-0.175,0-0.346-0.093-0.437-0.257L5.824,7.922c-0.135-0.241-0.048-0.546,0.193-0.68    c0.239-0.133,0.546-0.049,0.68,0.193l1.971,3.545c0.135,0.241,0.048,0.546-0.193,0.68C8.397,11.703,8.314,11.724,8.231,11.724z"/><path d="M11.925,10.754c-0.276,0-0.5-0.224-0.5-0.5V6.222c0-0.276,0.224-0.5,0.5-0.5s0.5,0.224,0.5,0.5v4.032    C12.425,10.53,12.201,10.754,11.925,10.754z"/><path d="M15.738,11.777c-0.084,0-0.169-0.021-0.247-0.065c-0.24-0.137-0.324-0.442-0.188-0.682l2.01-3.528    c0.137-0.241,0.441-0.324,0.682-0.188s0.324,0.442,0.188,0.682l-2.01,3.528C16.08,11.687,15.912,11.777,15.738,11.777z"/><path d="M18.59,14.699c-0.174,0-0.344-0.092-0.436-0.254c-0.136-0.24-0.051-0.546,0.189-0.682l3.538-1.998    c0.239-0.136,0.545-0.052,0.682,0.189c0.136,0.24,0.051,0.546-0.189,0.682l-3.538,1.998C18.758,14.679,18.674,14.699,18.59,14.699    z"/></g><path d="M23.469,18.278H0.531c-0.276,0-0.5-0.224-0.5-0.5s0.224-0.5,0.5-0.5h22.938c0.276,0,0.5,0.224,0.5,0.5   S23.745,18.278,23.469,18.278z"/></g><text x="0" y="39" fill="#000000" font-size="5px" font-weight="bold" font-family="'Helvetica Neue', Helvetica, Arial-Unicode, Arial, Sans-serif">Created by Atif Arshad</text><text x="0" y="44" fill="#000000" font-size="5px" font-weight="bold" font-family="'Helvetica Neue', Helvetica, Arial-Unicode, Arial, Sans-serif">from the Noun Project</text></svg>